<svg xmlns="http://www.w3.org/2000/svg" version="1.1" xmlns:xlink="http://www.w3.org/1999/xlink" xmlns:svgjs="http://svgjs.dev/svgjs" width="1500" height="1500" viewBox="0 0 1500 1500"><rect width="1500" height="1500" fill="#000000"></rect><g transform="matrix(0.6666666666666666,0,0,0.6666666666666666,250,250)"><svg viewBox="0 0 280 280" data-background-color="#182524" preserveAspectRatio="xMidYMid meet" height="1500" width="1500" xmlns="http://www.w3.org/2000/svg" xmlns:xlink="http://www.w3.org/1999/xlink"><g id="tight-bounds" transform="matrix(1,0,0,1,0,0)"><svg viewBox="0 0 280 280" height="280" width="280"><g><svg viewBox="0 0 280 280" height="280" width="280"><g><svg viewBox="0 0 280 280" height="280" width="280"><g id="textblocktransform"><svg viewBox="0 0 280 280" height="280" width="280" id="textblock"><g><svg viewBox="0 0 280 280" height="280" width="280"><g transform="matrix(1,0,0,1,74.05542859299793,74.00336708925556)"><svg viewBox="0 0 131.88914281400415 131.99326582148888" height="131.99326582148888" width="131.88914281400415"><g id="icon-0"><svg xmlns="http://www.w3.org/2000/svg" xmlns:xlink="http://www.w3.org/1999/xlink" version="1.1" x="0" y="0" viewBox="2.881 2.957 95 95.075" enable-background="new 0 0 100 100" xml:space="preserve" height="131.99326582148888" width="131.88914281400415" class="icon-jxe-0" data-fill-palette-color="accent" id="jxe-0"><g fill="#f2e2de" data-fill-palette-color="accent"><path d="M2.881 59.625V85.229L25.056 98.032 47.23 85.229V59.625L25.056 46.822zM37.778 79.772L25.056 87.117 12.333 79.772V65.082L25.056 57.736 37.778 65.082z" fill="#ffffff" data-fill-palette-color="accent"></path><path d="M72.556 15.759L50.381 2.957 28.206 15.76V41.365L50.381 54.168 72.556 41.365zM63.104 35.907L50.381 43.253 37.659 35.907V21.217L50.381 13.871 63.104 21.217z" fill="#ffffff" data-fill-palette-color="accent"></path><path d="M75.707 46.822L53.531 59.625V85.229L75.706 98.032 97.881 85.229V59.625zM88.429 79.772L75.706 87.117 62.983 79.772V65.082L75.707 57.736 88.429 65.082z" fill="#ffffff" data-fill-palette-color="accent"></path></g></svg></g></svg></g><g id="text-0"><path d="M29.885 109.172l-1.59-0.931c0.367-1.355 0.528-2.322 0.483-2.902-0.043-0.586-0.333-1.064-0.869-1.433-0.537-0.369-1.557-0.824-3.061-1.364v0l-17.26-6.204c-0.73 2.267-1.153 3.835-1.267 4.702-0.121 0.866 0.066 1.553 0.559 2.061 0.49 0.5 1.55 1.177 3.18 2.031v0l-0.51 1.92c-2.394-1.22-4.606-2.241-6.636-3.062v0l-0.191-0.47 1.621-3.127 4.411-12.271 0.768-3.518 0.446-0.242c2.194 0.697 4.497 1.299 6.908 1.807v0l-0.511 1.92c-1.85-0.341-3.131-0.474-3.841-0.398-0.711 0.076-1.292 0.448-1.744 1.117-0.446 0.671-1.102 2.046-1.968 4.123v0c1.523 0.723 4.267 1.872 8.232 3.445 3.965 1.573 7.558 2.939 10.777 4.096v0c0.98 0.352 1.734 0.43 2.263 0.232 0.535-0.195 0.95-0.701 1.244-1.519v0c0.285-0.792 0.504-1.531 0.659-2.215v0l0.202-0.065 1.698 1.012-0.518 1.294-1.697 4.484c-0.52 1.448-1.117 3.273-1.789 5.477z" fill="#ffffff" data-fill-palette-color="primary"></path><path d="M42.724 81.503c-0.891 1.492-2.014 2.616-3.37 3.374-1.351 0.761-2.819 1.093-4.405 0.995-1.592-0.101-3.171-0.619-4.737-1.554v0c-1.611-0.962-2.909-2.235-3.894-3.819-0.979-1.581-1.526-3.239-1.64-4.976-0.108-1.733 0.254-3.297 1.087-4.692v0c1.05-1.759 2.295-2.827 3.732-3.204 1.435-0.386 3.01-0.068 4.724 0.955v0c0.695 0.415 1.241 0.838 1.64 1.269v0l0.155 0.73-5.956 9.975c2.321 1.417 4.397 2.027 6.229 1.83 1.832-0.196 3.259-1.151 4.282-2.864v0c0.806-1.349 1.31-3.041 1.512-5.075v0l0.196-0.173 1.29 0.226c0.106 1.245 0.1 2.543-0.019 3.893-0.119 1.35-0.394 2.387-0.826 3.11zM28.806 79.61l3.582-6.735c0.169-0.386 0.231-0.677 0.186-0.874-0.054-0.194-0.26-0.399-0.619-0.613v0c-0.962-0.575-1.851-0.754-2.668-0.538-0.816 0.216-1.511 0.804-2.085 1.766v0c-0.676 1.133-0.869 2.335-0.578 3.606 0.286 1.267 1.013 2.397 2.182 3.388z" fill="#ffffff" data-fill-palette-color="primary"></path><path d="M57.311 62.807c-1.801 1.965-3.862 2.968-6.183 3.008-2.321 0.04-4.526-0.896-6.614-2.81v0c-1.467-1.344-2.517-2.887-3.151-4.628-0.63-1.737-0.794-3.467-0.494-5.188 0.3-1.721 1.067-3.254 2.299-4.599v0c0.533-0.582 1.088-1.103 1.664-1.565 0.576-0.462 1.065-0.818 1.466-1.07 0.406-0.257 0.67-0.407 0.79-0.45v0l0.3 0.099c0.09 0.118 0.283 0.398 0.579 0.841 0.296 0.442 0.71 1.006 1.242 1.692 0.537 0.681 1.158 1.362 1.864 2.045v0l-1.068 1.356-0.96-0.881c-0.767-0.703-1.598-1.033-2.493-0.989-0.89 0.039-1.684 0.439-2.384 1.202v0c-1.156 1.261-1.598 2.646-1.325 4.155 0.277 1.504 1.241 3.013 2.894 4.527v0c1.799 1.649 3.566 2.576 5.302 2.782 1.731 0.201 3.195-0.35 4.391-1.656v0c0.475-0.518 0.872-1.103 1.191-1.755 0.318-0.662 0.561-1.24 0.727-1.736 0.166-0.495 0.258-0.811 0.275-0.948v0l0.227-0.13 1.276 0.536c-0.027 0.245-0.098 0.76-0.214 1.544-0.116 0.793-0.308 1.647-0.578 2.56-0.265 0.917-0.606 1.603-1.023 2.058z" fill="#ffffff" data-fill-palette-color="primary"></path><path d="M66.167 51.641c0.62-0.537 0.965-1.033 1.037-1.487 0.073-0.463-0.116-1.018-0.567-1.666v0l-12.799-18.358c-0.432-0.62-0.852-1.002-1.26-1.146-0.408-0.144-0.832-0.063-1.273 0.244v0l-0.718 0.501-0.207-0.001-0.634-1.206c0.713-0.635 1.497-1.395 2.35-2.282 0.853-0.886 1.541-1.644 2.063-2.275v0l0.517 0.307c0.011 0.364 0.713 1.701 2.106 4.012 1.387 2.315 3.16 5.112 5.318 8.393v0c1.37-3.623 2.469-5.723 3.296-6.299v0c1.496-1.043 2.93-1.461 4.303-1.254 1.373 0.207 2.549 1.012 3.527 2.415v0c0.322 0.462 0.981 1.575 1.976 3.339v0c1.67 2.837 2.729 4.576 3.177 5.218v0c0.466 0.669 0.9 1.094 1.301 1.275 0.396 0.185 0.814 0.124 1.255-0.183v0l1.162-0.907 0.162 0.093 0.758 1.678c-1.567 0.987-2.614 1.665-3.142 2.033v0c-0.919 0.641-2.008 1.606-3.267 2.896v0l-0.851-1.516c0.566-0.661 0.873-1.275 0.921-1.843 0.049-0.568-0.135-1.151-0.552-1.749v0l-4.557-6.972c-0.804-1.153-1.667-1.869-2.589-2.148-0.927-0.275-1.853-0.09-2.778 0.555v0c-0.571 0.398-1.149 1.076-1.735 2.034-0.584 0.948-1.024 1.922-1.321 2.922v0c1.728 2.618 3.643 5.434 5.744 8.448v0c0.501 0.718 0.939 1.156 1.316 1.313 0.386 0.159 0.81 0.078 1.272-0.244v0l1.162-0.908 0.162 0.094 0.726 1.701c-1.638 1.037-2.709 1.731-3.216 2.084v0c-0.985 0.686-2.106 1.501-3.365 2.443v0z" fill="#ffffff" data-fill-palette-color="primary"></path><path d="M97.923 35.808c-1.483 0.596-2.944 0.757-4.382 0.485-1.436-0.266-2.739-0.929-3.908-1.989-1.166-1.054-2.089-2.426-2.769-4.119v0c-0.732-1.821-1.007-3.654-0.826-5.499 0.183-1.839 0.788-3.472 1.815-4.899 1.033-1.43 2.396-2.485 4.089-3.164v0c1.452-0.583 2.907-0.743 4.363-0.478 1.448 0.261 2.754 0.923 3.917 1.985 1.169 1.06 2.092 2.432 2.769 4.119v0c0.734 1.827 1.01 3.66 0.827 5.499-0.183 1.839-0.788 3.472-1.816 4.899-1.027 1.427-2.387 2.481-4.079 3.161zM98.245 33.46c1.458-0.586 2.38-1.646 2.763-3.179 0.381-1.525 0.163-3.303-0.652-5.334v0c-0.618-1.538-1.404-2.82-2.359-3.843-0.952-1.018-1.986-1.696-3.1-2.035-1.121-0.336-2.214-0.29-3.279 0.138v0c-1.458 0.586-2.378 1.649-2.76 3.188-0.373 1.543-0.147 3.343 0.679 5.398v0c0.618 1.538 1.401 2.81 2.347 3.816 0.95 1.012 1.973 1.683 3.071 2.014 1.104 0.328 2.2 0.274 3.29-0.163z" fill="#ffffff" data-fill-palette-color="primary"></path><path d="M132.096 27.769l0.304-1.816c1.397-0.139 2.358-0.332 2.884-0.581 0.533-0.249 0.876-0.689 1.03-1.322 0.154-0.633 0.216-1.748 0.187-3.346v0l-0.341-18.338c-2.379 0.124-3.994 0.287-4.846 0.488-0.852 0.195-1.428 0.613-1.728 1.255-0.293 0.635-0.549 1.867-0.766 3.695v0l-1.976 0.206c0.289-2.671 0.456-5.102 0.501-7.291v0l0.371-0.345 3.5 0.402 13.037-0.242 3.562-0.534 0.384 0.331c0.129 2.299 0.385 4.665 0.768 7.099v0l-1.975 0.206c-0.34-1.851-0.671-3.095-0.995-3.732-0.324-0.637-0.878-1.048-1.664-1.233-0.786-0.178-2.304-0.302-4.554-0.373v0c-0.135 1.68-0.232 4.653-0.291 8.919-0.06 4.266-0.058 8.109 0.005 11.53v0c0.019 1.041 0.215 1.773 0.588 2.197 0.373 0.431 0.993 0.638 1.862 0.622v0c0.842-0.016 1.61-0.073 2.305-0.172v0l0.132 0.167-0.341 1.946-1.394-0.024-4.794 0.01c-1.538 0.029-3.456 0.121-5.755 0.276z" fill="#ffffff" data-fill-palette-color="primary"></path><path d="M156.381 26.722c0.838 0.061 1.437-0.112 1.8-0.519 0.355-0.408 0.647-1.259 0.876-2.552v0l1.617-9.118c0.161-0.908 0.152-1.579-0.026-2.015-0.18-0.429-0.547-0.693-1.103-0.791v0c-0.222-0.039-0.41-0.059-0.565-0.06-0.156 0.006-0.266 0.017-0.329 0.033v0l-0.153-0.33 0.354-1.261c1.085-0.003 2.24-0.041 3.465-0.113 1.217-0.067 2-0.113 2.348-0.139v0l0.249 0.307c-0.103 0.238-0.289 0.794-0.559 1.668-0.271 0.881-0.46 1.723-0.569 2.526v0l0.134 0.155c1.06-1.152 2.224-2.043 3.495-2.674 1.264-0.631 2.31-0.873 3.139-0.726v0c0.385 0.068 0.678 0.144 0.879 0.227 0.202 0.076 0.327 0.132 0.374 0.167v0l0.098 0.189c-0.127 0.375-0.39 1.177-0.79 2.406-0.405 1.221-0.714 2.355-0.927 3.401v0l-1.638-0.159c0.201-1.136 0.26-1.903 0.176-2.302-0.084-0.399-0.348-0.638-0.792-0.716v0c-0.607-0.108-1.302 0.032-2.085 0.418-0.784 0.393-1.542 0.966-2.274 1.718v0c-0.167 0.792-0.455 2.108-0.862 3.948-0.412 1.833-0.733 3.315-0.96 4.446v0c-0.166 0.934-0.141 1.591 0.074 1.973 0.215 0.382 0.711 0.641 1.489 0.779v0c0.359 0.064 0.721 0.114 1.084 0.152 0.365 0.031 0.616 0.059 0.753 0.083v0l0.01 0.174-0.696 1.755c-0.274-0.049-0.824-0.16-1.648-0.332-0.825-0.173-1.678-0.338-2.559-0.494v0c-1.025-0.182-1.956-0.327-2.792-0.435-0.837-0.101-1.369-0.159-1.595-0.172v0z" fill="#ffffff" data-fill-palette-color="primary"></path><path d="M188.4 38.264c-2.111-0.83-2.855-2.344-2.232-4.543v0l-0.143-0.099c-1.307 0.569-2.454 0.977-3.441 1.222-0.987 0.246-1.675 0.292-2.064 0.14v0c-1.463-0.575-2.483-1.504-3.062-2.786-0.585-1.285-0.6-2.633-0.044-4.046v0c0.296-0.753 0.748-1.341 1.356-1.765 0.602-0.426 1.254-0.608 1.957-0.545v0l8.233 0.886 0.714-1.707c0.514-1.308 0.615-2.444 0.303-3.408-0.312-0.964-1.018-1.661-2.116-2.093v0c-0.728-0.286-1.563-0.419-2.505-0.397-0.942 0.022-1.927 0.19-2.956 0.505v0l-0.147-0.197 0.187-1.861c1.507-0.227 2.988-0.378 4.443-0.455 1.461-0.074 2.466-0.003 3.016 0.213v0c1.697 0.667 2.855 1.636 3.474 2.906 0.613 1.267 0.607 2.697-0.019 4.289v0c-0.226 0.574-0.777 1.714-1.655 3.421v0c-1.418 2.756-2.281 4.525-2.589 5.309v0c-0.226 0.574-0.255 1.075-0.089 1.504 0.163 0.42 0.491 0.727 0.984 0.921v0c0.42 0.165 0.889 0.239 1.409 0.223 0.522-0.023 0.963-0.113 1.324-0.27v0l0.303 0.834c-0.646 0.501-1.396 0.94-2.25 1.318-0.857 0.368-1.654 0.529-2.391 0.481zM182.235 32.58c0.494 0.194 1.143 0.246 1.947 0.157 0.805-0.09 1.59-0.301 2.355-0.635v0l1.763-3.913-5.952-0.491c-0.851-0.064-1.447 0.336-1.786 1.2v0c-0.296 0.753-0.289 1.479 0.02 2.177 0.318 0.695 0.869 1.197 1.653 1.505z" fill="#ffffff" data-fill-palette-color="primary"></path><path d="M211.817 52.795c-1.805-1.238-2.268-2.766-1.391-4.584v0l-0.178-0.268c-3.531-0.009-5.537-0.179-6.019-0.509v0c-1.323-0.908-2.284-2.016-2.881-3.326-0.597-1.31-0.791-2.709-0.582-4.198 0.203-1.493 0.796-2.955 1.779-4.388v0c1.129-1.646 2.556-2.895 4.281-3.746 1.729-0.857 3.539-1.239 5.431-1.148 1.895 0.086 3.617 0.659 5.164 1.72v0c0.744 0.51 1.51 1.104 2.299 1.782v0l3.949-5.759c0.855-1.247 0.856-2.163 0.003-2.748v0c-0.164-0.113-0.35-0.216-0.559-0.31-0.207-0.085-0.342-0.134-0.406-0.146v0l1.023-1.193c1.089 0.546 2.243 1.068 3.461 1.566 1.228 0.496 2.014 0.814 2.36 0.955v0l-0.104 0.592c-0.522 0.221-2.418 2.506-5.691 6.856-3.276 4.355-6.65 9.064-10.122 14.128v0c-0.349 0.509-0.493 0.989-0.433 1.44 0.07 0.45 0.323 0.825 0.761 1.124v0c0.328 0.225 0.691 0.381 1.089 0.47 0.398 0.088 0.742 0.131 1.033 0.129 0.294-0.007 0.478-0.018 0.552-0.031v0l0.107 0.881c-0.148 0.075-0.491 0.206-1.029 0.392-0.541 0.192-1.179 0.341-1.912 0.45-0.739 0.104-1.4 0.061-1.985-0.131zM206.325 45.555c0.487 0.334 1.11 0.556 1.871 0.668 0.751 0.113 1.422 0.159 2.014 0.139 0.593-0.02 0.978-0.037 1.157-0.051v0l6.52-9.507c-0.036-0.089-0.148-0.294-0.337-0.617-0.193-0.317-0.498-0.704-0.917-1.16-0.419-0.456-0.94-0.898-1.564-1.325v0c-1.548-1.061-3.127-1.373-4.738-0.934-1.615 0.444-3.049 1.58-4.302 3.406v0c-0.791 1.154-1.311 2.345-1.559 3.575-0.244 1.224-0.205 2.356 0.119 3.397 0.327 1.036 0.906 1.839 1.736 2.409z" fill="#ffffff" data-fill-palette-color="primary"></path><path d="M225.446 65.761c-1.19-1.266-1.964-2.654-2.321-4.166-0.362-1.508-0.278-3.011 0.25-4.51 0.534-1.504 1.465-2.88 2.794-4.129v0c1.367-1.286 2.947-2.185 4.741-2.697 1.789-0.508 3.534-0.579 5.234-0.213 1.696 0.371 3.101 1.148 4.214 2.332v0c1.404 1.493 2.09 2.982 2.058 4.468-0.022 1.486-0.76 2.913-2.214 4.28v0c-0.589 0.554-1.146 0.964-1.67 1.23v0l-0.744-0.051-7.959-8.463c-1.999 1.843-3.155 3.672-3.469 5.488-0.314 1.815 0.213 3.45 1.581 4.904v0c1.077 1.145 2.565 2.093 4.465 2.845v0l0.113 0.236-0.571 1.179c-1.226-0.239-2.472-0.601-3.738-1.086-1.266-0.484-2.187-1.033-2.764-1.647zM231.082 52.896l5.495 5.291c0.325 0.268 0.588 0.407 0.79 0.418 0.202 0.001 0.455-0.141 0.758-0.427v0c0.816-0.768 1.233-1.574 1.25-2.418 0.016-0.844-0.359-1.674-1.127-2.49v0c-0.904-0.961-2.007-1.476-3.309-1.544-1.297-0.073-2.583 0.317-3.857 1.17z" fill="#ffffff" data-fill-palette-color="primary"></path><path d="M237.089 77.233c0.515 0.664 1.045 0.994 1.589 0.99 0.541-0.009 1.369-0.361 2.484-1.055v0l7.859-4.897c0.782-0.487 1.276-0.943 1.48-1.368 0.199-0.421 0.149-0.87-0.149-1.348v0c-0.119-0.191-0.23-0.345-0.333-0.461-0.109-0.112-0.19-0.186-0.245-0.222v0l0.143-0.335 1.174-0.58c0.728 0.804 1.528 1.638 2.402 2.5 0.864 0.86 1.422 1.411 1.674 1.653v0l-0.062 0.39c-0.245 0.083-0.783 0.316-1.614 0.701-0.836 0.388-1.589 0.81-2.258 1.266v0l-0.026 0.203c1.565 0.017 3.007 0.287 4.325 0.81 1.314 0.517 2.194 1.133 2.64 1.847v0c0.207 0.332 0.347 0.6 0.419 0.805 0.078 0.201 0.12 0.331 0.126 0.391v0l-0.075 0.199c-0.364 0.156-1.136 0.497-2.317 1.021-1.179 0.516-2.228 1.045-3.148 1.587v0l-0.977-1.325c0.979-0.61 1.589-1.08 1.829-1.409 0.24-0.329 0.241-0.685 0.002-1.068v0c-0.326-0.523-0.894-0.947-1.705-1.269-0.816-0.32-1.749-0.5-2.798-0.542v0c-0.701 0.405-1.871 1.072-3.512 2-1.638 0.919-2.954 1.673-3.947 2.261v0c-0.805 0.501-1.277 0.96-1.417 1.375-0.14 0.415-0.001 0.958 0.416 1.627v0c0.193 0.31 0.397 0.612 0.612 0.908 0.221 0.292 0.368 0.497 0.442 0.615v0l-0.122 0.123-1.77 0.658c-0.147-0.236-0.432-0.719-0.855-1.448-0.423-0.729-0.871-1.473-1.345-2.233v0c-0.551-0.884-1.065-1.672-1.544-2.366-0.485-0.69-0.798-1.124-0.94-1.301v0z" fill="#ffffff" data-fill-palette-color="primary"></path><path d="M247.304 101.33c-0.327-0.833-0.568-1.619-0.722-2.356-0.154-0.737-0.244-1.329-0.269-1.774-0.017-0.442-0.021-0.725-0.013-0.85v0l0.231-0.23c0.42-0.072 1.265-0.297 2.534-0.674 1.269-0.377 2.233-0.681 2.891-0.911v0l0.742 1.291c-1.728 0.678-2.832 1.443-3.31 2.293-0.478 0.85-0.446 1.967 0.097 3.349v0c0.39 0.994 0.941 1.743 1.651 2.247 0.711 0.504 1.394 0.628 2.048 0.372v0c0.648-0.254 1.121-0.793 1.418-1.615 0.295-0.828 0.57-2.332 0.825-4.512v0c0.175-1.786 0.521-3.172 1.039-4.159 0.517-0.987 1.245-1.664 2.183-2.032v0c1.043-0.41 2.114-0.467 3.213-0.172 1.09 0.291 2.092 0.892 3.005 1.802 0.919 0.907 1.645 2.04 2.178 3.398v0c0.245 0.623 0.433 1.24 0.566 1.85 0.133 0.61 0.218 1.118 0.256 1.524 0.04 0.412 0.069 0.675 0.086 0.789v0l-0.166 0.151c-0.285 0.055-0.926 0.171-1.925 0.349-0.999 0.178-2.046 0.44-3.143 0.786v0l-0.691-1.407c0.08-0.032 0.242-0.081 0.487-0.148 0.247-0.061 0.475-0.133 0.685-0.216v0c0.938-0.368 1.523-0.893 1.754-1.575 0.233-0.676 0.13-1.575-0.312-2.699v0c-0.349-0.889-0.853-1.556-1.513-2.002-0.662-0.452-1.292-0.561-1.891-0.326v0c-0.63 0.247-1.111 0.746-1.443 1.496-0.339 0.753-0.588 1.851-0.747 3.296v0c-0.292 2.558-0.67 4.373-1.132 5.445-0.471 1.068-1.203 1.797-2.197 2.187v0c-0.994 0.39-2.047 0.43-3.159 0.119-1.121-0.315-2.153-0.929-3.095-1.841-0.948-0.91-1.669-1.991-2.161-3.245z" fill="#ffffff" data-fill-palette-color="primary"></path><path d="M2.778 143.367c0-6.585 5.338-11.923 11.923-11.923 6.585 0 11.923 5.338 11.922 11.923 0 6.585-5.338 11.923-11.922 11.923-6.585 0-11.923-5.338-11.923-11.923z" fill="#ffffff" data-fill-palette-color="primary"></path><path d="M253.431 143.367c0-6.585 5.338-11.923 11.923-11.923 6.585 0 11.923 5.338 11.923 11.923 0 6.585-5.338 11.923-11.923 11.923-6.585 0-11.923-5.338-11.923-11.923z" fill="#ffffff" data-fill-palette-color="primary"></path></g><g id="text-1"><path d="M10.468 185.343l2.03-0.362c0.665 1.429 1.227 2.381 1.686 2.854 0.456 0.467 1.05 0.664 1.78 0.591 0.73-0.073 1.934-0.421 3.612-1.045v0l19.272-7.16c-1.022-2.464-1.793-4.112-2.314-4.944-0.528-0.83-1.184-1.283-1.969-1.359-0.785-0.076-2.185 0.108-4.199 0.552v0l-0.946-2.004c2.935-0.687 5.565-1.413 7.892-2.178v0l0.499 0.26 0.88 3.853 5.089 13.697 1.88 3.577-0.205 0.533c-2.379 0.983-4.787 2.129-7.222 3.436v0l-0.95-2.013c1.825-1.046 3.017-1.856 3.574-2.432 0.557-0.575 0.785-1.314 0.684-2.216-0.096-0.905-0.522-2.558-1.28-4.958v0c-1.836 0.484-5.02 1.483-9.55 2.997-4.537 1.516-8.602 2.941-12.195 4.275v0c-1.088 0.404-1.79 0.884-2.107 1.441-0.311 0.554-0.297 1.285 0.04 2.192v0c0.33 0.889 0.675 1.684 1.035 2.385v0l-0.129 0.197-2.178 0.363-0.497-1.481-1.787-5.066c-0.603-1.622-1.411-3.617-2.425-5.985z" fill="#ffffff" data-fill-palette-color="secondary"></path><path d="M24.873 217.46c-1.012-1.666-1.54-3.366-1.585-5.1-0.042-1.743 0.402-3.375 1.333-4.895 0.937-1.523 2.278-2.815 4.024-3.875v0c1.797-1.091 3.736-1.711 5.818-1.859 2.086-0.142 4.016 0.187 5.79 0.987 1.765 0.798 3.12 1.976 4.067 3.535v0c1.191 1.961 1.601 3.753 1.229 5.375-0.369 1.628-1.508 3.022-3.418 4.183v0c-0.776 0.472-1.484 0.789-2.122 0.951v0l-0.805-0.233-6.754-11.119c-2.624 1.555-4.318 3.294-5.082 5.216-0.767 1.917-0.573 3.828 0.583 5.732v0c0.916 1.508 2.329 2.895 4.24 4.163v0l0.068 0.285-0.905 1.154c-1.282-0.54-2.56-1.226-3.834-2.058-1.276-0.823-2.158-1.637-2.647-2.442zM34.036 204.668l4.796 7.072c0.295 0.371 0.552 0.584 0.771 0.637 0.219 0.053 0.529-0.042 0.931-0.287v0c1.077-0.654 1.72-1.441 1.93-2.359 0.216-0.922-0.004-1.922-0.657-2.999v0c-0.768-1.264-1.854-2.082-3.26-2.454-1.409-0.378-2.913-0.248-4.511 0.39z" fill="#ffffff" data-fill-palette-color="secondary"></path><path d="M42.146 239.36c-2.028-2.188-2.958-4.581-2.789-7.179 0.164-2.593 1.411-4.969 3.74-7.129v0c1.634-1.515 3.452-2.548 5.452-3.101 2.001-0.543 3.949-0.568 5.845-0.074 1.891 0.499 3.53 1.497 4.919 2.995v0c0.595 0.642 1.126 1.307 1.592 1.996 0.467 0.679 0.823 1.258 1.067 1.737 0.249 0.474 0.393 0.78 0.43 0.917v0l-0.146 0.325c-0.135 0.089-0.463 0.276-0.986 0.561-0.523 0.295-1.188 0.708-1.996 1.24-0.809 0.542-1.628 1.175-2.458 1.899v0l-1.414-1.321 1.072-0.994c0.851-0.789 1.296-1.685 1.334-2.687 0.033-0.998-0.345-1.923-1.134-2.774v0c-1.303-1.405-2.809-2.026-4.518-1.86-1.705 0.17-3.479 1.109-5.322 2.817v0c-2.008 1.862-3.204 3.752-3.586 5.671-0.382 1.919 0.1 3.605 1.448 5.059v0c0.532 0.574 1.151 1.071 1.857 1.492 0.707 0.412 1.328 0.735 1.864 0.972 0.536 0.227 0.88 0.355 1.034 0.384v0l0.13 0.272-0.72 1.374c-0.265-0.052-0.835-0.179-1.71-0.382-0.87-0.197-1.804-0.488-2.803-0.874-0.994-0.38-1.728-0.826-2.202-1.336z" fill="#ffffff" data-fill-palette-color="secondary"></path><path d="M56.195 248.959c0.801 0.439 1.459 0.606 1.973 0.502 0.509-0.108 1.014-0.526 1.514-1.252v0l14.221-20.652c0.481-0.699 0.72-1.291 0.716-1.777-0.013-0.484-0.265-0.895-0.757-1.234v0l-0.819-0.564-0.068-0.216 1.005-1.144c0.956 0.505 2.064 1.031 3.322 1.576 1.265 0.549 2.331 0.969 3.201 1.262v0l-0.115 0.657c-0.38 0.165-1.509 1.432-3.389 3.801-1.875 2.372-4.111 5.333-6.708 8.882v0c4.337 0.015 6.972 0.345 7.906 0.988v0c1.682 1.158 2.685 2.497 3.007 4.015 0.328 1.522-0.051 3.073-1.137 4.651v0c-0.357 0.519-1.267 1.647-2.73 3.386v0c-2.322 2.869-3.731 4.665-4.227 5.385v0c-0.519 0.754-0.795 1.377-0.829 1.869-0.033 0.492 0.196 0.908 0.688 1.247v0l1.416 0.854-0.025 0.212-1.462 1.457c-1.657-1.254-2.783-2.085-3.378-2.495v0c-1.038-0.715-2.477-1.476-4.319-2.286v0l1.241-1.488c0.924 0.33 1.692 0.408 2.303 0.234 0.613-0.166 1.153-0.587 1.62-1.264v0l5.52-7.527c0.891-1.294 1.299-2.483 1.223-3.565-0.07-1.079-0.624-1.976-1.662-2.69v0c-0.65-0.448-1.59-0.789-2.82-1.025-1.231-0.236-2.425-0.313-3.583-0.233v0c-2.07 2.842-4.272 5.959-6.608 9.35v0c-0.553 0.803-0.838 1.44-0.856 1.91-0.014 0.465 0.235 0.874 0.748 1.228v0l1.417 0.855-0.026 0.212-1.503 1.428c-1.733-1.306-2.884-2.155-3.451-2.545v0c-1.114-0.767-2.414-1.626-3.901-2.578v0z" fill="#ffffff" data-fill-palette-color="secondary"></path><path d="M90.811 271.339c-1.666-0.656-2.982-1.648-3.948-2.977-0.96-1.326-1.508-2.867-1.643-4.623-0.135-1.756 0.172-3.585 0.921-5.485v0c0.807-2.048 1.992-3.755 3.556-5.121 1.568-1.357 3.319-2.22 5.254-2.591 1.933-0.365 3.849-0.173 5.749 0.575v0c1.641 0.646 2.952 1.633 3.933 2.961 0.979 1.333 1.535 2.878 1.67 4.634 0.132 1.763-0.176 3.594-0.924 5.495v0c-0.807 2.048-1.994 3.751-3.562 5.107-1.562 1.359-3.31 2.224-5.244 2.595-1.941 0.369-3.862 0.179-5.762-0.57zM92.887 269.677c1.635 0.644 3.199 0.49 4.693-0.461 1.487-0.954 2.679-2.569 3.576-4.845v0c0.68-1.727 1.027-3.376 1.04-4.946 0.01-1.564-0.31-2.912-0.962-4.046-0.651-1.133-1.578-1.937-2.781-2.41v0c-1.635-0.644-3.202-0.484-4.7 0.479-1.492 0.966-2.693 2.603-3.602 4.91v0c-0.68 1.727-1.023 3.367-1.029 4.919 0.001 1.554 0.32 2.888 0.958 4.001 0.644 1.116 1.579 1.916 2.807 2.399z" fill="#ffffff" data-fill-palette-color="secondary"></path><path d="M130.71 279.77l0.41-2.021c1.574-0.093 2.665-0.266 3.274-0.518 0.602-0.253 1.004-0.732 1.204-1.437 0.2-0.705 0.319-1.953 0.357-3.744v0l0.429-20.554c-2.667 0.044-4.483 0.155-5.449 0.334-0.966 0.185-1.628 0.629-1.988 1.331-0.36 0.702-0.703 2.071-1.031 4.107v0l-2.211 0.143c0.44-2.982 0.732-5.695 0.876-8.139v0l0.426-0.37 3.907 0.599 14.608 0.305 4.018-0.433 0.42 0.386c0.039 2.574 0.219 5.234 0.54 7.981v0l-2.222 0.142c-0.301-2.082-0.617-3.488-0.946-4.218-0.33-0.73-0.933-1.213-1.811-1.45-0.877-0.244-2.57-0.455-5.08-0.634v0c-0.225 1.886-0.467 5.213-0.726 9.983-0.259 4.777-0.428 9.081-0.508 12.913v0c-0.024 1.16 0.164 1.99 0.565 2.489 0.401 0.493 1.085 0.749 2.053 0.769v0c0.948 0.02 1.814-0.009 2.598-0.085v0l0.136 0.192-0.463 2.159-1.56-0.082-5.368-0.202c-1.73-0.036-3.883-0.018-6.458 0.054z" fill="#ffffff" data-fill-palette-color="secondary"></path><path d="M158.22 277.281c0.912-0.251 1.478-0.658 1.698-1.22 0.226-0.564 0.214-1.574-0.037-3.031v0l-1.757-10.225c-0.175-1.019-0.441-1.724-0.797-2.113-0.355-0.383-0.84-0.522-1.454-0.416v0c-0.248 0.043-0.455 0.095-0.619 0.157-0.172 0.056-0.285 0.106-0.338 0.148v0l-0.291-0.283-0.101-1.466c1.139-0.418 2.339-0.896 3.599-1.436 1.267-0.534 2.076-0.878 2.426-1.032v0l0.381 0.217c-0.017 0.292-0.001 0.952 0.047 1.98 0.049 1.028 0.166 1.986 0.353 2.876v0l0.212 0.115c0.678-1.617 1.564-2.997 2.659-4.141 1.095-1.144 2.107-1.795 3.035-1.954v0c0.438-0.075 0.775-0.11 1.011-0.104 0.243 0.005 0.396 0.016 0.46 0.032v0l0.169 0.163c0.016 0.448 0.044 1.392 0.083 2.832 0.04 1.446 0.148 2.76 0.324 3.941v0l-1.788 0.458c-0.219-1.274-0.449-2.106-0.691-2.495-0.242-0.389-0.611-0.541-1.108-0.455v0c-0.686 0.118-1.365 0.531-2.038 1.238-0.679 0.709-1.259 1.599-1.741 2.671v0c0.121 0.901 0.315 2.398 0.581 4.492 0.265 2.087 0.49 3.771 0.676 5.051v0c0.181 1.052 0.457 1.738 0.828 2.058 0.377 0.312 0.999 0.393 1.869 0.244v0c0.399-0.069 0.798-0.151 1.199-0.247 0.393-0.101 0.668-0.165 0.825-0.192v0l0.081 0.178-0.072 2.111c-0.307 0.053-0.927 0.146-1.859 0.28-0.94 0.128-1.904 0.277-2.89 0.446v0c-1.15 0.198-2.185 0.399-3.106 0.604-0.92 0.205-1.502 0.346-1.744 0.421v0z" fill="#ffffff" data-fill-palette-color="secondary"></path><path d="M196.125 268.705c-2.377 0.914-4.139 0.227-5.288-2.059v0l-0.185 0.018c-0.652 1.465-1.293 2.671-1.924 3.617-0.629 0.952-1.163 1.512-1.602 1.681v0c-1.64 0.63-3.187 0.635-4.64 0.015-1.453-0.621-2.484-1.723-3.094-3.308v0c-0.326-0.848-0.4-1.679-0.223-2.493 0.18-0.808 0.583-1.45 1.211-1.925v0l7.474-5.505-0.696-1.949c-0.564-1.467-1.341-2.482-2.332-3.046-0.991-0.564-2.102-0.609-3.334-0.136v0c-0.823 0.316-1.616 0.841-2.379 1.575-0.762 0.733-1.449 1.619-2.058 2.656v0l-0.273-0.044-1.257-1.691c1.076-1.323 2.189-2.567 3.338-3.734 1.159-1.163 2.044-1.862 2.657-2.097v0c1.906-0.733 3.596-0.81 5.068-0.233 1.466 0.58 2.543 1.765 3.231 3.554v0c0.247 0.644 0.653 2.004 1.217 4.082v0c0.918 3.348 1.545 5.462 1.883 6.341v0c0.25 0.65 0.602 1.086 1.058 1.309 0.457 0.229 0.965 0.237 1.521 0.022v0c0.47-0.181 0.912-0.475 1.324-0.881 0.416-0.416 0.713-0.825 0.892-1.228v0l0.893 0.467c-0.159 0.899-0.451 1.829-0.878 2.788-0.423 0.951-0.958 1.686-1.604 2.204zM186.729 268.683c0.557-0.214 1.134-0.663 1.731-1.347 0.59-0.682 1.076-1.451 1.457-2.307v0l-1.501-4.57-5.296 4.102c-0.746 0.592-0.933 1.371-0.562 2.337v0c0.326 0.848 0.882 1.444 1.668 1.788 0.784 0.338 1.618 0.337 2.503-0.003z" fill="#ffffff" data-fill-palette-color="secondary"></path><path d="M224.135 251.721c-2.033 1.374-3.818 1.232-5.354-0.427v0l-0.35 0.069c-1.457 3.682-2.458 5.707-3.002 6.074v0c-1.489 1.006-3.039 1.549-4.649 1.63-1.616 0.084-3.159-0.286-4.628-1.111-1.467-0.833-2.747-2.057-3.838-3.672v0c-1.248-1.846-1.965-3.842-2.151-5.989-0.185-2.156 0.161-4.202 1.037-6.139 0.871-1.933 2.179-3.49 3.926-4.671v0c0.835-0.564 1.769-1.119 2.801-1.664v0l-4.383-6.486c-0.951-1.406-1.907-1.785-2.868-1.135v0c-0.187 0.126-0.369 0.277-0.546 0.453-0.183 0.18-0.292 0.302-0.329 0.366v0l-0.824-1.556c1.017-0.911 2.035-1.903 3.054-2.976 1.023-1.068 1.679-1.755 1.968-2.063v0l0.571 0.347c0.015 0.638 1.621 3.559 4.817 8.762 3.187 5.201 6.708 10.653 10.561 16.355v0c0.39 0.577 0.832 0.923 1.325 1.037 0.503 0.116 1.001 0.007 1.496-0.326v0c0.363-0.245 0.671-0.558 0.927-0.939 0.255-0.38 0.44-0.722 0.556-1.024 0.118-0.312 0.184-0.509 0.201-0.591v0l0.967 0.258c0.008 0.178 0.003 0.59-0.017 1.236-0.024 0.64-0.13 1.365-0.32 2.173-0.19 0.809-0.506 1.478-0.948 2.009zM214.332 254.481c0.549-0.371 1.037-0.929 1.462-1.673 0.426-0.744 0.751-1.428 0.978-2.053 0.217-0.627 0.356-1.037 0.417-1.23v0l-7.229-10.697c-0.114-0.003-0.376 0.03-0.786 0.099-0.41 0.069-0.939 0.227-1.589 0.474-0.649 0.247-1.326 0.608-2.029 1.083v0c-1.742 1.177-2.714 2.699-2.917 4.565-0.198 1.862 0.398 3.821 1.786 5.875v0c0.88 1.302 1.91 2.335 3.09 3.098 1.176 0.758 2.372 1.182 3.586 1.274 1.22 0.088 2.297-0.184 3.231-0.815z" fill="#ffffff" data-fill-palette-color="secondary"></path><path d="M240.745 236.289c-1.346 1.41-2.85 2.362-4.513 2.856-1.672 0.494-3.363 0.489-5.072-0.015-1.714-0.509-3.31-1.468-4.788-2.878v0c-1.521-1.451-2.623-3.163-3.307-5.135-0.679-1.977-0.863-3.926-0.552-5.847 0.312-1.911 1.097-3.527 2.356-4.846v0c1.584-1.66 3.208-2.521 4.871-2.584 1.668-0.067 3.31 0.671 4.927 2.214v0c0.657 0.627 1.147 1.228 1.471 1.802v0l-0.016 0.837-8.982 9.412c2.184 2.13 4.303 3.314 6.359 3.552 2.051 0.243 3.845-0.442 5.383-2.054v0c1.218-1.276 2.19-3.001 2.918-5.175v0l0.257-0.14 1.35 0.573c-0.188 1.379-0.519 2.791-0.991 4.237-0.463 1.446-1.02 2.51-1.671 3.191zM226.011 230.767l5.583-6.47c0.282-0.382 0.42-0.685 0.415-0.91-0.005-0.225-0.178-0.5-0.519-0.825v0c-0.911-0.87-1.838-1.287-2.78-1.25-0.947 0.032-1.855 0.503-2.725 1.414v0c-1.021 1.07-1.528 2.332-1.522 3.785 0.001 1.459 0.518 2.877 1.549 4.256z" fill="#ffffff" data-fill-palette-color="secondary"></path><path d="M250.807 220.197c0.427-0.844 0.507-1.536 0.238-2.077-0.265-0.546-1.022-1.217-2.268-2.011v0l-8.751-5.573c-0.873-0.556-1.573-0.833-2.1-0.831-0.522 0.005-0.951 0.271-1.286 0.797v0c-0.135 0.213-0.235 0.4-0.3 0.564-0.074 0.165-0.113 0.282-0.117 0.35v0l-0.405 0.025-1.153-0.911c0.457-1.124 0.909-2.334 1.356-3.629 0.457-1.297 0.746-2.127 0.867-2.491v0l0.416-0.136c0.205 0.209 0.704 0.641 1.498 1.296 0.794 0.655 1.583 1.212 2.367 1.673v0l0.227-0.08c-0.741-1.589-1.167-3.173-1.278-4.752-0.11-1.58 0.087-2.767 0.594-3.561v0c0.239-0.375 0.44-0.648 0.603-0.818 0.167-0.176 0.278-0.283 0.333-0.319v0l0.234-0.016c0.343 0.289 1.06 0.903 2.152 1.843 1.098 0.943 2.143 1.746 3.136 2.409v0l-0.863 1.632c-1.091-0.695-1.861-1.083-2.312-1.166-0.451-0.083-0.811 0.089-1.082 0.514v0c-0.374 0.587-0.525 1.368-0.453 2.341 0.068 0.979 0.337 2.007 0.807 3.085v0c0.748 0.516 1.987 1.379 3.716 2.59 1.723 1.207 3.121 2.172 4.194 2.895v0c0.9 0.573 1.594 0.83 2.08 0.771 0.484-0.069 0.963-0.475 1.436-1.22v0c0.217-0.341 0.425-0.692 0.624-1.053 0.189-0.359 0.327-0.606 0.412-0.74v0l0.186 0.06 1.516 1.472c-0.167 0.263-0.515 0.784-1.044 1.564-0.537 0.782-1.075 1.595-1.612 2.44v0c-0.627 0.984-1.174 1.886-1.641 2.705-0.467 0.819-0.754 1.344-0.861 1.574v0z" fill="#ffffff" data-fill-palette-color="secondary"></path><path d="M266.778 195.017c-0.382 0.933-0.795 1.76-1.24 2.48-0.449 0.712-0.833 1.257-1.152 1.635-0.328 0.382-0.547 0.618-0.656 0.71v0l-0.356 0.005c-0.401-0.264-1.261-0.734-2.583-1.411-1.321-0.676-2.337-1.178-3.049-1.505v0l0.404-1.619c1.921 0.786 3.405 1.02 4.452 0.703 1.049-0.323 1.889-1.255 2.519-2.795v0c0.452-1.105 0.587-2.135 0.404-3.091-0.188-0.958-0.648-1.587-1.378-1.885v0c-0.724-0.296-1.523-0.225-2.397 0.212-0.874 0.438-2.261 1.439-4.163 3.004v0c-1.521 1.319-2.872 2.178-4.052 2.577-1.186 0.396-2.301 0.381-3.344-0.046v0c-1.166-0.477-2.079-1.259-2.738-2.345-0.661-1.08-1.011-2.344-1.049-3.793-0.034-1.44 0.257-2.915 0.874-4.424v0c0.286-0.7 0.609-1.349 0.968-1.947 0.365-0.596 0.691-1.075 0.976-1.438 0.282-0.357 0.46-0.589 0.532-0.696v0l0.258-0.002c0.27 0.182 0.878 0.585 1.827 1.209 0.948 0.624 2 1.223 3.155 1.796v0l-0.524 1.677c-0.092-0.038-0.261-0.125-0.506-0.261-0.251-0.139-0.494-0.256-0.727-0.351v0c-1.043-0.427-1.924-0.454-2.643-0.081-0.71 0.369-1.321 1.179-1.832 2.431v0c-0.404 0.988-0.514 1.921-0.328 2.8 0.188 0.872 0.616 1.445 1.285 1.718v0c0.7 0.286 1.475 0.256 2.326-0.091 0.857-0.344 1.906-1.044 3.147-2.098v0c2.216-1.845 3.929-3.021 5.14-3.529 1.211-0.508 2.368-0.536 3.473-0.084v0c1.105 0.452 1.991 1.237 2.658 2.356 0.659 1.122 1.018 2.415 1.078 3.879 0.064 1.473-0.189 2.906-0.759 4.3z" fill="#ffffff" data-fill-palette-color="secondary"></path></g></svg></g></svg></g></svg></g><g></g></svg></g><defs></defs></svg><rect width="280" height="280" fill="none" stroke="none" visibility="hidden"></rect></g></svg></g></svg>